<?xml version="1.0" encoding="UTF-8"?>
<svg version="1.1" viewBox="0 0 490 490" xmlns="http://www.w3.org/2000/svg">

    <g fill="#f16421" stroke="#d9d9d9" stroke-width="8px">
        <path d="m131.2 105.23c-5.1 0-9.3 4.2-9.3 9.3v37.2h-40v-37.2c0-5.1-4.2-9.3-9.3-9.3s-9.3 4.2-9.3 9.3v92.9c0 5.1 4.2 9.3 9.3 9.3s9.3-4.2 9.3-9.3v-37.2h40v37.2c0 5.1 4.2 9.3 9.3 9.3s9.3-4.2 9.3-9.3v-92.9c0-5.1-4.1-9.3-9.3-9.3z"/>
        <path d="m225.4 105.23h-61.9c-5.1 0-9.3 4.2-9.3 9.3s4.2 9.3 9.3 9.3h21.6v83.6c0 5.1 4.2 9.3 9.3 9.3s9.3-4.2 9.3-9.3v-83.6h21.6c5.1 0 9.3-4.2 9.3-9.3s-4.1-9.3-9.2-9.3z"/>
        <path d="m351 105.73c-3.9-1.2-8.1.2-10.4 3.6l-39.2 56.5-39.1-56.5c-2.3-3.3-6.5-4.8-10.4-3.6s-6.5 4.8-6.5 8.9v92.9c0 5.1 4.2 9.3 9.3 9.3s9.3-4.2 9.3-9.3v-63.2l29.8 43.1c1.7 2.5 4.6 4 7.6 4s5.9-1.5 7.6-4l29.9-43.1v63.2c0 5.1 4.2 9.3 9.3 9.3s9.3-4.2 9.3-9.3v-92.9c0-4.1-2.6-7.7-6.5-8.9z"/>
        <path d="m419.6 198.23h-27.4v-83.6c0-5.1-4.2-9.3-9.3-9.3s-9.3 4.2-9.3 9.3v92.9c0 5.1 4.2 9.3 9.3 9.3h36.7c5.1 0 9.3-4.2 9.3-9.3 0-5.2-4.2-9.3-9.3-9.3z"/>
    </g>
    <path fill="#dd512a" d="m169.94 245.26c-1.6114 0-2.8118 1.3131-2.6687 2.9176l13.584 152.36c.14312 1.6048 1.5299 3.2706 3.083 3.7017l57.642 16.005c1.5528.43109 4.0931.43109 5.6462.001l57.817-16.031c1.5528-.43074 2.9412-2.0962 3.084-3.7007l13.606-152.34c.14411-1.6045-1.0577-2.9176-2.669-2.9176zm122.86 34.944c-.12841 1.4312-.35028 3.9161-.49341 5.5209l-.35781 3.9976c-.14415 1.6042-.34925 3.8986-.45745 5.098-.10785 1.1998-.21023 2.1815-.22907 2.1815h-2.9628-40.873-2.9604-2.9618-21.526c-1.6114 0-2.8118 1.3131-2.6687 2.9176l1.2556 14.035c.14313 1.6042 1.5792 2.9176 3.1902 2.9176h19.75 2.9618 2.9604 33.947 5.5408c1.435 0 2.5037 1.1714 2.3736 2.6026-.1308 1.4312-.35405 3.9168-.49684 5.5209l-4.0373 45.249c-.14414 1.6048-.32631 3.6548-.40472 4.556-.0801.90053-1.4155 1.9897-2.9683 2.4205l-34.06 9.4442c-1.5528.43006-2.8426.78616-2.8669.79164-.024.006-1.3135-.34344-2.867-.77383l-34.097-9.4613c-1.5528-.43074-2.9402-2.0962-3.083-3.701l-2.1948-24.634c-.14314-1.6048 1.0587-2.918 2.6701-2.918h3.1118 5.8589 4.6403c1.6114 0 3.046 1.3131 3.1902 2.918l.8608 9.6435c.14313 1.6048 1.5323 3.261 3.0882 3.6812l15.949 4.3071c1.5549.42014 2.8334.76391 2.8406.76391.007 0 1.285-.34446 2.8406-.76459l15.978-4.3174c1.5549-.42013 2.9454-2.077 3.0895-3.6812l1.7326-19.321c.14416-1.6049-1.0563-2.918-2.6677-2.918h-17.967-2.9604-2.9618-37.491c-1.6114 0-3.046-1.3135-3.1892-2.9176l-4.2513-47.637c-.14314-1.6048-.36501-4.089-.49341-5.5209-.12704-1.4312 1.0861-2.6026 2.6975-2.6026h42.728 2.9618 2.9604 42.676c1.611-.00052 2.8248 1.1703 2.6971 2.6023z"/>
</svg>
