<svg version="1.1" viewBox="0 0 490 490" xmlns="http://www.w3.org/2000/svg">

    <g fill="#f16421" stroke="#d9d9d9" stroke-width="8px">
        <path d="m131.2 184.51c-5.1 0-9.3 4.2-9.3 9.3v37.2h-40v-37.2c0-5.1-4.2-9.3-9.3-9.3s-9.3 4.2-9.3 9.3v92.9c0 5.1 4.2 9.3 9.3 9.3s9.3-4.2 9.3-9.3v-37.2h40v37.2c0 5.1 4.2 9.3 9.3 9.3s9.3-4.2 9.3-9.3v-92.9c0-5.1-4.1-9.3-9.3-9.3z"/>
        <path d="m225.4 184.51h-61.9c-5.1 0-9.3 4.2-9.3 9.3s4.2 9.3 9.3 9.3h21.6v83.6c0 5.1 4.2 9.3 9.3 9.3s9.3-4.2 9.3-9.3v-83.6h21.6c5.1 0 9.3-4.2 9.3-9.3s-4.1-9.3-9.2-9.3z"/>
        <path d="m351 185.01c-3.9-1.2-8.1.2-10.4 3.6l-39.2 56.5-39.1-56.5c-2.3-3.3-6.5-4.8-10.4-3.6s-6.5 4.8-6.5 8.9v92.9c0 5.1 4.2 9.3 9.3 9.3s9.3-4.2 9.3-9.3v-63.2l29.8 43.1c1.7 2.5 4.6 4 7.6 4s5.9-1.5 7.6-4l29.9-43.1v63.2c0 5.1 4.2 9.3 9.3 9.3s9.3-4.2 9.3-9.3v-92.9c0-4.1-2.6-7.7-6.5-8.9z"/>
        <path d="m419.6 277.51h-27.4v-83.6c0-5.1-4.2-9.3-9.3-9.3s-9.3 4.2-9.3 9.3v92.9c0 5.1 4.2 9.3 9.3 9.3h36.7c5.1 0 9.3-4.2 9.3-9.3 0-5.2-4.2-9.3-9.3-9.3z"/>
    </g>
</svg>
