
<svg viewBox="0 0 128 128" xmlns="http://www.w3.org/2000/svg" id="Capa_1">
    <style>
        #Capa_1 .head{fill:#ffec76}
        #Capa_1 .body{fill:#ffec76}
        #Capa_1 .chair{fill:#fff}
        #Capa_1 .desk{fill:#fff}
        #Capa_1 .laptop{fill:#3999c6}
    </style>
    
    <g>
        <path class="head" d="m27.872 29.714c7.5128 0 13.605-6.0884 13.605-13.602 0-7.5165-6.0924-13.605-13.605-13.605-7.5184 0-13.605 6.0889-13.605 13.605.000269 7.5141 6.087 13.602 13.605 13.602z"/>
        <path class="body" d="m52.312 79.458h-10.751v-11.23c-1.1045-.59126-2.1056-1.4088-2.8645-2.4799l-14.668-20.612 17.901 17.262c1.0822 1.0459 2.5326 1.6302 4.0364 1.6302h17.91c7.4935-.0055 7.8764-.40922 9.6826-1.9077 1.8061-1.4985 1.5631-2.3926 1.5631-3.9114 0-1.2111-.45491-2.2724-1.091-3.204-1.0443-1.5398-2.7228-2.6141-4.7266-2.6141h-20.988l-16.205-15.633 9.3369 6.1483c-.58064-5.9252-5.5234-10.574-11.6-10.574h-5.0014c-6.4674 0-11.714 5.2459-11.714 11.715v39.775c0 5.5406 4.8679 9.6003 8.9239 9.6003h23.274v26.183c0 3.8576 3.1271 6.9826 6.9825 6.9826 3.8531 0 6.9823-3.125 6.9823-6.9826v-33.165c0-3.8568-3.1292-6.9823-6.9823-6.9823z"/>
        <path class="chair" d="m37.714 97.178h-26.962v-41.701c0-2.57-2.0868-4.6547-4.6536-4.6547-2.569 0-4.6555 2.0849-4.6555 4.6547v66.456c0 2.5706 2.0865 4.6547 4.6555 4.6547 2.5671 0 4.6536-2.0841 4.6536-4.6547v-15.446h22.306v15.446c0 2.5706 2.0814 4.6547 4.6557 4.6547 2.5722 0 4.6533-2.0841 4.6533-4.6547v-20.101c0-2.5703-2.0812-4.6547-4.6533-4.6547z"/>
        <path class="desk" d="m123.02 77.175h-58.134c-2.569 0-4.6557 2.0838-4.6557 4.6547 0 2.5708 2.0868 4.6547 4.6557 4.6547h24.415v30.795h-7.7101c-2.5724 0-4.6536 2.0836-4.6536 4.6544 0 2.5706 2.0814 4.6547 4.6536 4.6547h24.73c2.5674 0 4.6539-2.0841 4.6539-4.6547 0-2.5708-2.0865-4.6544-4.6539-4.6544h-7.7101v-30.795h24.41c2.574 0 4.6555-2.0841 4.6555-4.6547s-2.0814-4.6547-4.6552-4.6547z"/>
        <path class="laptop" d="m65.171 69.911c0 2.5708 2.0868 4.6547 4.6557 4.6547h26.424c1.8947 0 3.6011-1.1504 4.313-2.9053l11.638-28.687c.96818-2.3823-.18144-5.0979-2.5634-6.0637-2.3878-.97084-5.0966.17904-6.0645 2.5637l-10.459 25.783h-21.623c-1.301-.04735-6.2463-.28633-6.3209 4.6555z"/>
    </g>
    
 
</svg>
