<?xml version="1.0" encoding="iso-8859-1"?>
<!-- Generator: Adobe Illustrator 19.0.0, SVG Export Plug-In . SVG Version: 6.00 Build 0)  -->
<svg version="1.1" id="Capa_1" xmlns="http://www.w3.org/2000/svg" xmlns:xlink="http://www.w3.org/1999/xlink" x="0px" y="0px"
	 viewBox="0 0 512 512" style="enable-background:new 0 0 512 512;" xml:space="preserve">
<path style="fill:#F2F2F2;" d="M490.667,512H21.333C9.547,512,0,502.453,0,490.667V21.333C0,9.547,9.547,0,21.333,0h469.333
	C502.453,0,512,9.547,512,21.333v469.333C512,502.453,502.453,512,490.667,512"/>
<rect x="37.333" y="37.333" style="fill:#84DBFF;" width="437.333" height="344.107"/>
<polygon style="fill:#40596B;" points="474.667,316.331 383.84,189.419 246.485,381.397 474.667,381.397 "/>
<polygon style="fill:#334A5E;" points="383.851,189.419 383.851,381.397 246.496,381.397 "/>
<polygon style="fill:#40596B;" points="37.333,381.397 363.691,381.397 175.563,118.475 37.333,311.691 "/>
<polygon style="fill:#334A5E;" points="37.333,311.691 37.333,381.397 175.563,381.397 175.563,118.453 "/>
<g>
	<path style="fill:#FFFFFF;" d="M299.947,62.517c-1.557,0-2.827,1.269-2.827,2.837v8.939c0,1.557,1.269,2.816,2.827,2.816
		s2.827-1.248,2.827-2.816v-8.939C302.773,63.787,301.504,62.517,299.947,62.517"/>
	<path style="fill:#FFFFFF;" d="M299.947,165.504c-1.557,0-2.827,1.269-2.827,2.816v8.939c0,1.557,1.269,2.837,2.827,2.837
		s2.827-1.269,2.827-2.837v-8.939C302.773,166.773,301.504,165.504,299.947,165.504"/>
	<path style="fill:#FFFFFF;" d="M358.731,121.312c0-1.557-1.269-2.837-2.827-2.837h-8.949c-1.557,0-2.816,1.269-2.816,2.837
		c0,1.547,1.248,2.816,2.816,2.816h8.949C357.461,124.128,358.731,122.859,358.731,121.312"/>
	<path style="fill:#FFFFFF;" d="M255.755,121.312c0-1.557-1.259-2.837-2.816-2.837h-8.949c-1.557,0-2.816,1.269-2.816,2.837
		c0,1.547,1.259,2.816,2.816,2.816h8.949C254.485,124.128,255.755,122.859,255.755,121.312"/>
	<path style="fill:#FFFFFF;" d="M341.504,79.755c-1.099-1.109-2.88-1.109-3.979,0l-6.336,6.325c-1.099,1.088-1.099,2.88,0,3.979
		c1.109,1.109,2.891,1.109,4,0l6.315-6.336C342.603,82.645,342.603,80.832,341.504,79.755"/>
	<path style="fill:#FFFFFF;" d="M268.693,152.544c-1.099-1.088-2.891-1.088-3.979,0l-6.336,6.336c-1.099,1.109-1.099,2.891,0,4
		c1.099,1.088,2.891,1.088,3.989,0l6.325-6.357C269.792,155.435,269.792,153.643,268.693,152.544"/>
	<path style="fill:#FFFFFF;" d="M341.504,162.859c1.109-1.088,1.109-2.88,0-3.979l-6.315-6.336c-1.109-1.088-2.891-1.088-4,0
		c-1.099,1.109-1.099,2.891,0,4l6.336,6.315C338.624,163.957,340.405,163.957,341.504,162.859"/>
	<path style="fill:#FFFFFF;" d="M268.693,90.059c1.099-1.109,1.099-2.891,0-3.979l-6.325-6.336c-1.109-1.109-2.891-1.109-3.989,0
		c-1.099,1.088-1.099,2.88,0,3.979l6.336,6.336C265.813,91.147,267.605,91.147,268.693,90.059"/>
	<path style="fill:#FFFFFF;" d="M338.357,121.312c0,21.184-17.205,38.4-38.411,38.4c-21.205,0-38.411-17.205-38.411-38.4
		c0-21.205,17.195-38.421,38.411-38.421C321.141,82.891,338.357,100.107,338.357,121.312"/>
</g>
<g>
</g>
<g>
</g>
<g>
</g>
<g>
</g>
<g>
</g>
<g>
</g>
<g>
</g>
<g>
</g>
<g>
</g>
<g>
</g>
<g>
</g>
<g>
</g>
<g>
</g>
<g>
</g>
<g>
</g>
</svg>
