<svg xmlns="http://www.w3.org/2000/svg" xmlns:xlink="http://www.w3.org/1999/xlink" viewBox="0 0 32 32">

    <style>
        :root {
            --start: #ffffff;
            --end: #00d9f9;
        }
    </style>
    <defs>
        <path d="M7.8 12.58L4.52 14.22L6.24 15.28L9.02 13.56L11.82 14.87C12.88 15.4 13.55 15.73 13.82 15.86C13.94 15.92 13.96 16.1 13.84 16.18C13.64 16.32 13.13 16.68 12.31 17.25L9.61 18.16L6.33 16.1L4.77 17.09L7.8 19.06L6.49 20.37L2.06 17.91L0.99 19.47L4.69 21.44L1.49 24.06L3.37 24.55L6 22.59L5.83 27.02L7.72 27.02L8 21L8.8 20.62L9.74 23.21L11.49 22.42L11.25 20.04L13.05 19.63C13.94 19.08 14.5 18.74 14.72 18.61C14.94 18.47 15.22 18.66 15.18 18.91C15.12 19.3 14.97 20.27 14.74 21.83L10.41 24.5L11.66 26.52L14.53 24.8L14.86 26.52L10.51 29.39L12.32 30.13L15.02 28.98L14.45 31.53L17.24 31.77L16.83 28.49L20.11 30.46L20.93 28.98L17.16 26.69L16.83 25.29L21.42 25.87L16.89 23.11L17.1 20.86C17.39 19.51 17.57 18.67 17.64 18.34C17.67 18.17 17.86 18.08 18.01 18.15C18.24 18.27 18.8 18.55 19.7 19L21.42 20.29L21.34 24.72L23.39 25.21L23.39 21L25 22L25.19 27.18L26.67 27.18L26.34 23L29.21 24.72L31 23.41L28 21.27L30.61 20L29.62 18L26 20.21L24.37 19.3L26.59 17.75L24.78 16.35L22 18.32L20.59 17.23C19.83 16.68 19.36 16.34 19.17 16.21C18.86 15.99 18.89 15.52 19.22 15.33C19.66 15.1 20.75 14.51 22.49 13.56L25 15.45L27.66 14.71L24 12.66L25.69 11.68L30 14L31 12.25L27.66 10.69L30.2 9.21L29.62 7.41L27 8.14L26.59 4.78L24.54 4.62L25.19 9.46L23.31 10.53L23 7.25L21.35 7.18L21.67 11.59L19.39 12.77C19.39 12.77 19.39 12.77 19.39 12.77C19.41 11.98 18.35 11.71 17.97 12.41C17.82 12.69 17.72 12.88 17.29 13.69C17.27 13.73 17.22 13.72 17.21 13.68C17.19 13.4 17.11 12.7 17 11.59L17.4 9.38L20.76 6.84L20.35 5.28L17.32 7.33L17 5.44L21 2.82L20.35 1.26L17.4 3L17 0.27L15 0.97L15 3.39L12.32 1.26L10.07 2.08L11 3.39L15 5.36L15 7L11.33 5.69L10.67 6.67L15 9.38L14.69 11.68C14.83 12.66 14.91 13.27 14.95 13.51C14.97 13.68 14.8 13.8 14.65 13.74C14.43 13.64 13.88 13.39 13 13L12 12.66L11 11.68L11 7.74C9.92 7.3 9.32 7.05 9.2 7C8.8 9.17 8.58 10.37 8.54 10.61C7.62 9.82 7.11 9.39 7 9.3C7.56 6.43 7.72 5 7.48 5C7.23 5 6.74 5 6 5C5.98 5.26 5.84 6.52 5.59 8.8C5.4 8.7 4.44 8.21 2.72 7.33C2.65 7.42 2.32 7.85 1.73 8.64L4.77 10.28L1.08 12.17L3.05 13.89L6.33 11.59L7.8 12.58Z" id="ct0BTXQp6"/>
        <radialGradient id="snowflake">
            <stop offset="10%" style="stop-color:var(--start)"/>
            <stop offset="95%" style="stop-color:var(--end)" />
        </radialGradient>
    </defs>
    <g>
        <use xlink:href="#ct0BTXQp6" opacity="1" fill="url(#snowflake)"></use>
    </g>
</svg>